<svg xmlns:xlink="http://www.w3.org/1999/xlink" xmlns="http://www.w3.org/2000/svg" width="62" height="62" viewBox="0 0 62 62" class="undefined"><g id="Grupo_1117" data-name="Grupo 1117" transform="translate(-1513 -2945)"><circle id="Elipse_106" data-name="Elipse 106" cx="31" cy="31" r="31" transform="translate(1513 2945)" fill="#77CEE0"/><path id="briefcase" d="M29.6,8H22.4V5.6A2.4,2.4,0,0,0,20,3.2H12A2.4,2.4,0,0,0,9.6,5.6V8H2.4A2.4,2.4,0,0,0,0,10.4V28a2.4,2.4,0,0,0,2.4,2.4H29.6A2.4,2.4,0,0,0,32,28V10.4A2.4,2.4,0,0,0,29.6,8ZM11.2,5.6a.8.8,0,0,1,.8-.8h8a.8.8,0,0,1,.8.8V8H11.2V5.6Zm-8.8,4H29.6a.8.8,0,0,1,.8.8v12H27.2v-.8a.8.8,0,0,0-.8-.8H23.2a.8.8,0,0,0-.8.8v.8H9.6v-.8a.8.8,0,0,0-.8-.8H5.6a.8.8,0,0,0-.8.8v.8H1.6v-12a.8.8,0,0,1,.8-.8ZM25.6,22.4V24H24V22.4ZM8,22.4V24H6.4V22.4Zm21.6,6.4H2.4a.8.8,0,0,1-.8-.8V24H4.8v.8a.8.8,0,0,0,.8.8H8.8a.8.8,0,0,0,.8-.8V24H22.4v.8a.8.8,0,0,0,.8.8h3.2a.8.8,0,0,0,.8-.8V24h3.2v4a.8.8,0,0,1-.8.8Z" transform="translate(1528 2956.8)" fill="#ffffff"/></g></svg>