<svg xmlns:xlink="http://www.w3.org/1999/xlink" xmlns="http://www.w3.org/2000/svg" width="62" height="62" viewBox="0 0 62 62" class="undefined"><g id="Grupo_1116" data-name="Grupo 1116" transform="translate(-1513 -2855)"><circle id="Elipse_105" data-name="Elipse 105" cx="31" cy="31" r="31" transform="translate(1513 2855)" fill="#77CEE0"/><path id="man-woman" d="M20,8a4,4,0,1,1,4-4A4.005,4.005,0,0,1,20,8Zm0-6.4A2.4,2.4,0,1,0,22.4,4,2.4,2.4,0,0,0,20,1.6Zm6.554,16.485a2.5,2.5,0,0,0,1.752.742,2.119,2.119,0,0,0,1.51-.611,2.314,2.314,0,0,0-.131-3.262L25.7,10.967A5.2,5.2,0,0,0,22.4,9.6H17.6a5.2,5.2,0,0,0-3.3,1.366l-3.987,3.987a2.5,2.5,0,0,0-.738,1.61,2.146,2.146,0,0,0,.606,1.653,2.116,2.116,0,0,0,1.51.611,2.5,2.5,0,0,0,1.752-.742l2.92-2.92.347,1.39L11.763,21.5A1.379,1.379,0,0,0,12.8,24H16v5.6a2.4,2.4,0,0,0,4,1.787A2.4,2.4,0,0,0,24,29.6V24h3.2a1.379,1.379,0,0,0,1.034-2.5l-4.949-4.949.347-1.39,2.92,2.92ZM18.4,30.4a.8.8,0,0,1-.8-.8V24h1.6v5.6a.8.8,0,0,1-.8.8Zm4-.8a.8.8,0,0,1-1.6,0V24h1.6v5.6Zm-.566-12.234L26.868,22.4H13.13l5.034-5.034a.8.8,0,0,0,.211-.76l-.8-3.2a.8.8,0,0,0-1.342-.373l-3.918,3.918a.9.9,0,0,1-.621.274.528.528,0,0,1-.379-.142.549.549,0,0,1-.141-.424.915.915,0,0,1,.272-.576L15.433,12.1a3.7,3.7,0,0,1,2.166-.9h4.8a3.693,3.693,0,0,1,2.166.9l3.987,3.987a.736.736,0,0,1,.131,1,.525.525,0,0,1-.379.142.892.892,0,0,1-.621-.274l-3.918-3.918a.8.8,0,0,0-1.342.373l-.8,3.2a.8.8,0,0,0,.211.76ZM8.8,8a4,4,0,1,1,4-4A4.005,4.005,0,0,1,8.8,8Zm0-6.4A2.4,2.4,0,1,0,11.2,4,2.4,2.4,0,0,0,8.8,1.6Zm3.2,24a.8.8,0,0,0-.8.8v3.2a.8.8,0,0,1-1.6,0V20A.8.8,0,0,0,8,20v9.6a.8.8,0,0,1-1.6,0v-16a.8.8,0,0,0-1.6,0v4.8a.8.8,0,0,1-1.6,0V12a.8.8,0,0,1,.8-.8h8a.8.8,0,0,0,0-1.6H4A2.4,2.4,0,0,0,1.6,12v6.4a2.4,2.4,0,0,0,3.2,2.262V29.6a2.4,2.4,0,0,0,4,1.787,2.4,2.4,0,0,0,4-1.787V26.4a.8.8,0,0,0-.8-.8Z" fill="#ffffff" transform="translate(1528.4 2869)"/></g></svg>