<svg xmlns:xlink="http://www.w3.org/1999/xlink" xmlns="http://www.w3.org/2000/svg" width="62" height="62" viewBox="0 0 62 62" class="undefined"><g id="Grupo_1119" data-name="Grupo 1119" transform="translate(-1513 -3125)"><circle id="Elipse_108" data-name="Elipse 108" cx="31" cy="31" r="31" transform="translate(1513 3125)" fill="#77CEE0"/><path id="snow2" d="M29.6,16H26.731l1.834-1.834a.8.8,0,0,0-1.131-1.131L24.468,16H17.13l4.8-4.8H26.4a.8.8,0,0,0,0-1.6H23.53l2.634-2.634a.8.8,0,1,0-1.131-1.131L22.4,8.47V5.6a.8.8,0,1,0-1.6,0V10.07L16,14.87V7.532l2.966-2.966a.8.8,0,0,0-1.131-1.131L16,5.269V2.4a.8.8,0,0,0-1.6,0V5.269L12.566,3.435a.8.8,0,0,0-1.131,1.131L14.4,7.532V14.87l-4.8-4.8V5.6A.8.8,0,0,0,8,5.6V8.47L5.367,5.836A.8.8,0,0,0,4.236,6.967L6.87,9.6H4a.8.8,0,0,0,0,1.6H8.47l4.8,4.8H5.932L2.966,13.035a.8.8,0,1,0-1.131,1.131L3.669,16H.8a.8.8,0,1,0,0,1.6H3.669L1.835,19.434a.8.8,0,0,0,1.132,1.131L5.933,17.6h7.338l-4.8,4.8H4A.8.8,0,1,0,4,24H6.871L4.237,26.633a.8.8,0,0,0,1.132,1.131L8,25.13V28a.8.8,0,0,0,1.6,0V23.53l4.8-4.8v7.338l-2.966,2.966a.8.8,0,0,0,1.131,1.131L14.4,28.331V31.2a.8.8,0,0,0,1.6,0V28.331l1.834,1.834a.8.8,0,1,0,1.132-1.131L16,26.068V18.73l4.8,4.8V28a.8.8,0,0,0,1.6,0V25.13l2.634,2.634a.8.8,0,0,0,1.132-1.131L23.534,24H26.4a.8.8,0,1,0,0-1.6H21.934l-4.8-4.8h7.338l2.966,2.966a.8.8,0,0,0,1.132-1.131L26.736,17.6H29.6a.8.8,0,0,0,0-1.6Z" transform="translate(1528 3139.4)" fill="#ffffff"/></g></svg>