<svg xmlns:xlink="http://www.w3.org/1999/xlink" xmlns="http://www.w3.org/2000/svg" width="62" height="62" viewBox="0 0 62 62" class="undefined"><g id="Grupo_1118" data-name="Grupo 1118" transform="translate(-1513 -3035)"><circle id="Elipse_107" data-name="Elipse 107" cx="31" cy="31" r="31" transform="translate(1513 3035)" fill="#77CEE0"/><path id="transmission" d="M24.8,11.2a.8.8,0,0,0-.8.8v3.2a.8.8,0,0,1-.8.8h-4V12a.8.8,0,1,0-1.6,0v4H15.92a4.013,4.013,0,0,0-3.12-3.12V12a.8.8,0,0,0-1.6,0v.88A4.013,4.013,0,0,0,8.08,16H6.4V12a.8.8,0,0,0-1.6,0v9.6a.8.8,0,0,0,1.6,0v-4H8.08a4.013,4.013,0,0,0,3.12,3.12v.88a.8.8,0,0,0,1.6,0v-.88a4.013,4.013,0,0,0,3.12-3.12H17.6v4a.8.8,0,1,0,1.6,0v-4h4a2.4,2.4,0,0,0,2.4-2.4V12a.8.8,0,0,0-.8-.8ZM12,19.2a2.4,2.4,0,1,1,2.4-2.4A2.4,2.4,0,0,1,12,19.2ZM7.2,32H4a.8.8,0,0,1-.8-.8V28a.8.8,0,0,1,.8-.8H6.4V25.6H4A.8.8,0,1,1,4,24H7.2a.8.8,0,0,1,.8.8V28a.8.8,0,0,1-.8.8H4.8v1.6H7.2a.8.8,0,1,1,0,1.6ZM13.6,1.6H10.4a.8.8,0,1,0,0,1.6h2.4V4.8H10.4a.8.8,0,0,0,0,1.6h2.4V8H10.174a.8.8,0,1,0,0,1.6H13.6a.8.8,0,0,0,.8-.8V2.4a.8.8,0,0,0-.8-.8Zm0,22.4a.8.8,0,0,0-.8.8v2.4H11.2V24.8a.8.8,0,0,0-1.6,0V28a.8.8,0,0,0,.8.8h2.4v2.4a.8.8,0,0,0,1.6,0V24.8a.8.8,0,0,0-.8-.8ZM20,9.6H16.8a.8.8,0,1,1,0-1.6h2.4V6.4H16.8a.8.8,0,0,1-.8-.8V2.4a.8.8,0,0,1,.8-.8H20a.8.8,0,0,1,0,1.6H17.6V4.8H20a.8.8,0,0,1,.8.8V8.8A.8.8,0,0,1,20,9.6ZM20,32H16.8a.8.8,0,0,1-.8-.8V24.8a.8.8,0,0,1,.8-.8H20a.8.8,0,0,1,0,1.6H17.6v1.6H20a.8.8,0,0,1,.8.8v3.2A.8.8,0,0,1,20,32Zm-2.4-1.6h1.6V28.8H17.6ZM26.4,9.6a.794.794,0,0,1-.565-.234L24,7.532V8.8a.8.8,0,1,1-1.6,0V2.4a.8.8,0,0,1,.8-.8h3.2a.8.8,0,0,1,.8.8V5.6a.8.8,0,0,1-.8.8H25.131l1.834,1.834A.8.8,0,0,1,26.4,9.6ZM24,4.8h1.6V3.2H24ZM7.2,8H6.4V2.4a.8.8,0,0,0-.8-.8H4A.8.8,0,0,0,4,3.2h.8V8H4A.8.8,0,0,0,4,9.6H7.2A.8.8,0,0,0,7.2,8Z" transform="translate(1530.8 3051.4)" fill="#ffffff"/></g></svg>