<svg xmlns:xlink="http://www.w3.org/1999/xlink" xmlns="http://www.w3.org/2000/svg" width="62" height="62" viewBox="0 0 62 62" class="undefined"><g id="Grupo_1115" data-name="Grupo 1115" transform="translate(-1513 -2765)"><circle id="Elipse_104" data-name="Elipse 104" cx="31" cy="31" r="31" transform="translate(1513 2765)" fill="#77CEE0"/><path id="car2" d="M8.8,25.6a2.4,2.4,0,1,1,2.4-2.4,2.4,2.4,0,0,1-2.4,2.4Zm0-3.2a.8.8,0,1,0,.8.8A.8.8,0,0,0,8.8,22.4Zm14.4,3.2a2.4,2.4,0,1,1,2.4-2.4A2.4,2.4,0,0,1,23.2,25.6Zm0-3.2a.8.8,0,1,0,.8.8A.8.8,0,0,0,23.2,22.4Zm3.933-3.349a33.447,33.447,0,0,0-1.618-6.61c-.488-.976-1.741-1.723-3.722-2.218A24.871,24.871,0,0,0,16,9.6a24.817,24.817,0,0,0-5.794.624c-1.981.5-3.234,1.242-3.722,2.218a33.4,33.4,0,0,0-1.618,6.61A3.788,3.788,0,0,0,3.2,22.4v4a2.4,2.4,0,0,0,1.6,2.262V30.4A1.6,1.6,0,0,0,6.4,32H8a1.6,1.6,0,0,0,1.6-1.6V28.8H22.4v1.6A1.6,1.6,0,0,0,24,32h1.6a1.6,1.6,0,0,0,1.6-1.6V28.662A2.4,2.4,0,0,0,28.8,26.4v-4a3.789,3.789,0,0,0-1.667-3.349ZM7.915,13.158C8.39,12.209,11.384,11.2,16,11.2s7.61,1.008,8.085,1.958a26.8,26.8,0,0,1,1.285,5.093c-.157-.046-.318-.09-.485-.128-.427-.1-.888-.182-1.381-.25L18.866,14.55a.8.8,0,1,0-.933,1.3l2.506,1.795C19.079,17.6,17.588,17.6,16,17.6h-.558l-4.6-3.066a.8.8,0,1,0-.887,1.331l2.63,1.754a27.035,27.035,0,0,0-5.472.5q-.249.06-.485.128a26.865,26.865,0,0,1,1.286-5.093ZM8,30.4H6.4V28.8H8Zm16,0V28.8h1.6v1.6Zm3.2-4a.8.8,0,0,1-.8.8H5.6a.8.8,0,0,1-.8-.8v-4c0-1.478.778-2.267,2.685-2.722A42.667,42.667,0,0,1,16,19.2a42.672,42.672,0,0,1,8.515.478c1.907.454,2.685,1.243,2.685,2.722v4Z" fill="#ffffff" transform="translate(1528.802 2775.401)"/></g></svg>