<?xml version="1.0" encoding="utf-8"?>
<!-- Generator: Adobe Illustrator 20.0.0, SVG Export Plug-In . SVG Version: 6.00 Build 0)  -->
<svg version="1.1" id="grid-layout" xmlns="http://www.w3.org/2000/svg" xmlns:xlink="http://www.w3.org/1999/xlink" x="0px"
	 y="0px" viewBox="0 0 1010 1010" enable-background="new 0 0 1010 1010" xml:space="preserve">
<g id="grid-layout-grid-layout">
	<g>
		<g>
			<line fill="#ECF0F1" x1="988.959" y1="218.3486" x2="988.959" y2="285.1929"/>
		</g>
		<g>
			<rect x="21.0415" y="21.0415" fill="#BDC3C7" width="967.9175" height="197.3071"/>
		</g>
		<g>
			<rect x="21.0415" y="218.3486" fill="#ED7161" width="967.9175" height="770.6104"/>
		</g>
		<g>
			<g>
				<path fill="#656872" d="M1010,1010H0V0h1010V1010L1010,1010z M42.0835,967.916H967.916V42.0835H42.0835V967.916L42.0835,967.916
					z"/>
			</g>
			<g>
				<path fill="none" d="M977.1426,452.1904"/>
			</g>
			<g>
				<path fill="none" d="M977.1426,227.3691"/>
			</g>
			<g>
				<polygon fill="#656872" points="984.0273,239.3901 34.3364,239.3901 34.3364,197.3066 984.0273,197.3066 984.0273,239.3901 				
					"/>
			</g>
		</g>
		<g>
			<g>
				<line fill="#ECF0F1" x1="133.1748" y1="101.6943" x2="133.1748" y2="142.0312"/>
				<polygon fill="#656872" points="154.2163,142.0312 112.1333,142.0312 112.1333,101.6943 154.2163,101.6943 154.2163,142.0312 
									"/>
			</g>
			<g>
				<line fill="#ECF0F1" x1="226.1567" y1="101.6943" x2="226.1567" y2="142.0312"/>
				<polygon fill="#656872" points="247.1987,142.0312 205.1152,142.0312 205.1152,101.6943 247.1987,101.6943 247.1987,142.0312 
									"/>
			</g>
			<g>
				<line fill="#ECF0F1" x1="319.0566" y1="101.6943" x2="319.0566" y2="142.0312"/>
				<polygon fill="#656872" points="340.0981,142.0312 298.0151,142.0312 298.0151,101.6943 340.0981,101.6943 340.0981,142.0312 
									"/>
			</g>
		</g>
		<g>
			<polygon fill="#656872" points="876.8252,142.915 451.8618,142.915 451.8618,100.8315 876.8252,100.8315 876.8252,142.915 			"/>
		</g>
	</g>
	<g>
		<g>
			<rect x="263.021" y="363.8525" fill="#FFCA70" width="104.5508" height="104.5508"/>
		</g>
		<g>
			<rect x="452.7246" y="363.8525" fill="#FFCA70" width="104.5508" height="104.5508"/>
		</g>
		<g>
			<rect x="642.4082" y="363.8525" fill="#FFCA70" width="104.5703" height="104.5508"/>
		</g>
		<g>
			<rect x="263.021" y="553.5352" fill="#FFCA70" width="104.5508" height="104.5722"/>
		</g>
		<g>
			<rect x="452.7246" y="553.5352" fill="#FFCA70" width="104.5508" height="104.5722"/>
		</g>
		<g>
			<rect x="642.4082" y="553.5352" fill="#FFCA70" width="104.5703" height="104.5722"/>
		</g>
		<g>
			<rect x="263.021" y="743.2393" fill="#FFCA70" width="104.5508" height="104.5712"/>
		</g>
		<g>
			<rect x="452.7246" y="743.2393" fill="#FFCA70" width="104.5508" height="104.5712"/>
		</g>
		<g>
			<rect x="642.4082" y="743.2393" fill="#FFCA70" width="104.5703" height="104.5712"/>
		</g>
	</g>
</g>
</svg>
