<svg xmlns:inkscape="http://www.inkscape.org/namespaces/inkscape" xmlns:sodipodi="http://sodipodi.sourceforge.net/DTD/sodipodi-0.dtd" xmlns="http://www.w3.org/2000/svg" xmlns:svg="http://www.w3.org/2000/svg" viewBox="0 0 8.46667 10.583324375" version="1.1" x="0px" y="0px"><g transform="translate(-77.88213,-100.22006)"><path style="color:#000000;" d="m 82.115234,101.39453 c -0.26649,0 -0.531831,0.13424 -0.664062,0.40235 l -0.541016,1.09179 c -0.02709,0.0549 -0.07807,0.0927 -0.138672,0.10156 l -1.205078,0.17579 c -0.591851,0.0861 -0.840244,0.84802 -0.412109,1.26562 l 0.873047,0.85156 c 0.04389,0.0428 0.06309,0.10364 0.05273,0.16407 L 79.875,106.64844 c -0.101018,0.58936 0.546974,1.0616 1.076172,0.7832 l 1.078125,-0.56836 c 0.05416,-0.0285 0.117719,-0.0285 0.171875,0 l 1.078125,0.56641 c 0.529198,0.2784 1.177185,-0.19188 1.076172,-0.78125 l -0.205078,-1.20117 c -0.01036,-0.0604 0.0088,-0.12126 0.05273,-0.16407 l 0.873047,-0.85156 c 0.428133,-0.41761 0.179741,-1.17957 -0.41211,-1.26562 l -1.205078,-0.17579 c -0.0606,-0.009 -0.111586,-0.0466 -0.138672,-0.10156 l -0.539062,-1.09179 c -0.13223,-0.26811 -0.399525,-0.40235 -0.666016,-0.40235 z m -0.189453,0.63477 c 0.08549,-0.17335 0.295369,-0.17334 0.38086,0 l 0.539062,1.09375 c 0.103883,0.21063 0.304695,0.35683 0.537109,0.39062 l 1.205079,0.17578 c 0.191613,0.0279 0.25775,0.22808 0.11914,0.36328 l -0.873047,0.85157 c -0.168091,0.16396 -0.244745,0.40137 -0.205078,0.63281 l 0.205078,1.20117 c 0.03267,0.19064 -0.13742,0.31466 -0.308593,0.22461 l -1.078125,-0.56836 c -0.207874,-0.10936 -0.456189,-0.10936 -0.664063,0 l -1.078125,0.56836 c -0.171171,0.0901 -0.341268,-0.034 -0.308594,-0.22461 l 0.205078,-1.20117 c 0.03967,-0.23144 -0.03699,-0.46885 -0.205078,-0.63281 l -0.871093,-0.85157 c -0.13861,-0.1352 -0.07443,-0.33541 0.117187,-0.36328 l 1.205078,-0.17578 c 0.232414,-0.0338 0.433226,-0.17999 0.53711,-0.39062 z" fill="#000000" stroke-linecap="round" stroke-linejoin="round"/></g><text x="0" y="23.4666595" fill="#000000" font-size="5px" font-weight="bold" font-family="'Helvetica Neue', Helvetica, Arial-Unicode, Arial, Sans-serif">Created by Meko</text><text x="0" y="28.4666595" fill="#000000" font-size="5px" font-weight="bold" font-family="'Helvetica Neue', Helvetica, Arial-Unicode, Arial, Sans-serif">from the Noun Project</text></svg>